<?xml version="1.0" encoding="utf-8"?>
<!-- Generator: Adobe Illustrator 23.0.1, SVG Export Plug-In . SVG Version: 6.00 Build 0)  -->
<svg version="1.1" id="Layer_1" xmlns="http://www.w3.org/2000/svg" xmlns:xlink="http://www.w3.org/1999/xlink" x="0px" y="0px"
	 viewBox="0 0 220.16 190.57" style="enable-background:new 0 0 220.16 190.57;" xml:space="preserve">
<g>
	<polyline points="40,104.63 40,0 60,0 60,190.29 40,190.29 40,104.63 	"/>
	<rect x="-5.14" y="85.43" transform="matrix(6.123234e-17 -1 1 6.123234e-17 -5.4286 185.4286)" width="190.29" height="20"/>
	<polygon points="20,115.5 20,190.5 0,190.5 0,130.13 	"/>
	<rect x="74.86" y="85.14" transform="matrix(6.123234e-17 -1 1 6.123234e-17 74.8571 265.1429)" width="190.29" height="20"/>
	<polygon points="200.23,75.39 199.84,0.39 219.84,0.29 220.16,60.66 	"/>
	<polygon points="200,115.5 200,190.5 220,190.5 220,130.13 	"/>
	<polygon points="120.23,75.39 119.84,0.39 139.84,0.29 140.16,60.66 	"/>
</g>
</svg>
